<?xml version="1.0" encoding="UTF-8"?>
<svg id="Capa_1" xmlns="http://www.w3.org/2000/svg" version="1.1" viewBox="0 0 1171 316.24">
  <defs>
    <linearGradient id="goldShine" x1="0%" y1="0%" x2="100%" y2="0%">
      <stop offset="0%" style="stop-color:#d4af37">
        <animate attributeName="offset" values="-0.5;1" dur="3s" repeatCount="indefinite" />
      </stop>
      <stop offset="15%" style="stop-color:#f4e5ad">
        <animate attributeName="offset" values="-0.35;1.15" dur="3s" repeatCount="indefinite" />
      </stop>
      <stop offset="30%" style="stop-color:#fff">
        <animate attributeName="offset" values="-0.2;1.3" dur="3s" repeatCount="indefinite" />
      </stop>
      <stop offset="45%" style="stop-color:#f4e5ad">
        <animate attributeName="offset" values="-0.05;1.45" dur="3s" repeatCount="indefinite" />
      </stop>
      <stop offset="60%" style="stop-color:#d4af37">
        <animate attributeName="offset" values="0.1;1.6" dur="3s" repeatCount="indefinite" />
      </stop>
    </linearGradient>
    <style>
      .st0 {
        fill: url(#goldShine);
      }
      .st1 {
        fill: #fff;
      }
    </style>
  </defs>
  <path class="st0" d="M10.83,147.35c10.64-2.2,18.19,3.74,19.24,14.26.7,6.96.81,27.48-1.5,33.44-4.98,12.86-25.88,10.95-27.49-2.46-1.01-8.44-1.95-28.02.29-35.73,1.26-4.33,4.9-8.58,9.45-9.52h.01Z"/>
  <rect class="st0" x="141.79" y="0" width="35.04" height="316.24" rx="16.96" ry="16.96"/>
  <path class="st0" d="M81.55,74.47h0c9.37,0,16.96,7.59,16.96,16.96v150.33c0,9.37-7.59,16.96-16.96,16.96h0c-9.37,0-16.96-7.59-16.96-16.96V91.43c0-9.37,7.59-16.96,16.96-16.96Z"/>
  <g>
    <path class="st1" d="M396.14,111.61c.6-1.97,1.97-2.57,3.54-1.57,9.06,5.12,19.9,8.87,27.38,9.45,6.31,0,10.44-2.96,10.44-7.48,0-11.62-55.36-11.03-55.36-53.98,0-26.4,19.9-43.93,49.84-43.93,13.99,0,31.72,5.71,44.13,14.19,1.57.99,2.17,2.57,1.57,3.54l-12.41,27.78c-.6,1.97-1.97,2.57-3.54,1.57-9.65-5.51-20.88-9.65-27.78-10.25-6.11,0-10.05,2.76-10.05,7.09,0,11.62,55.75,10.84,55.75,54.18,0,26.2-20.29,43.73-50.64,43.73-16.55,0-33.89-5.12-43.73-13-1.57-1.18-2.17-2.57-1.57-3.54l12.41-27.78h0Z"/>
    <path class="st1" d="M589.19,155.72c-41.96,0-69.94-28.37-69.94-70.72s27.98-71.11,69.94-71.11,69.94,28.37,69.94,71.11-27.98,70.72-69.94,70.72ZM589.19,53.68c-16.16,0-26.98,12.61-26.98,31.32s10.84,31.32,26.98,31.32,26.98-12.61,26.98-31.32-10.84-31.32-26.98-31.32Z"/>
    <path class="st1" d="M806.26,17.04c1.97,0,3.34,1.57,3.34,3.34v82.15c0,34.86-18.72,53.19-54.38,53.19s-53.98-18.32-54.38-53.19V20.38c0-1.77,1.57-3.34,3.34-3.34h33.89c1.97,0,3.34,1.57,3.34,3.34v85.7c0,9.06,5.12,14.38,13.79,14.38s13.79-5.31,13.79-14.19V20.38c0-1.77,1.57-3.34,3.34-3.34h33.91Z"/>
    <path class="st1" d="M966.22,17.04c1.77,0,2.95,1.37,2.95,2.95v130.21c0,1.37-1.18,2.76-2.95,2.76h-34.08c-1.37,0-3.15-.99-4.14-2.57l-34.28-61.27v61.07c0,1.37-1.18,2.76-2.95,2.76h-34.86c-1.57,0-2.76-1.37-2.76-2.76V20c0-1.57,1.18-2.95,2.76-2.95h34.08c1.77,0,3.74.99,4.54,2.57l34.08,61.27V20.01c0-1.57,1.37-2.95,2.76-2.95h34.86v-.03Z"/>
    <path class="st1" d="M1062.35,17.04c41.76,0,69.54,26.98,69.54,67.97s-27.78,67.97-69.54,67.97h-45.7c-1.37,0-2.76-1.37-2.76-2.95V20c0-1.57,1.37-2.95,2.76-2.95h45.7ZM1064.71,117.52c15.16,0,25.41-13,25.41-32.51s-10.25-32.51-25.41-32.51h-10.25v65.01h10.25Z"/>
    <path class="st1" d="M430.56,182.18c39.36,0,65.53,25.44,65.53,64.04s-26.18,64.04-65.53,64.04h-43.07c-1.3,0-2.59-1.3-2.59-2.78v-122.53c0-1.49,1.3-2.78,2.59-2.78h43.07,0ZM432.78,276.87c14.3,0,23.95-12.26,23.95-30.64s-9.65-30.63-23.95-30.63h-9.65v61.27h9.65Z"/>
    <path class="st1" d="M618.44,276.87c1.49,0,2.78,1.12,2.78,2.41v28.4c0,1.3-1.3,2.59-2.78,2.59h-86.32c-1.3,0-2.59-1.49-2.98-2.78v-122.72c0-1.67.92-2.59,2.59-2.59h84.46c1.67,0,2.98,1.3,2.98,2.59v28.03c0,1.67-1.3,2.78-2.98,2.78h-48.45v14.67h43.61c1.67,0,2.59,1.3,2.41,2.41l-6.85,25.99c-.18,1.12-1.49,2.41-3.16,2.41h-36.01v15.77h50.68v.03Z"/>
    <path class="st1" d="M737.52,276.87c1.3,0,2.41,1.12,2.41,2.59l-6.85,28.22c-.18,1.3-1.49,2.59-2.98,2.59h-72.69c-1.49,0-2.78-1.3-2.78-2.59v-122.72c0-1.49,1.3-2.78,2.78-2.78h32.86c1.49,0,2.78,1.3,2.78,2.78v91.89h44.46,0Z"/>
    <path class="st1" d="M859.03,182.18c1.86,0,3.16,1.49,3.16,3.16v77.42c0,32.86-17.63,50.13-51.23,50.13s-50.86-17.26-51.25-50.13v-77.42c0-1.67,1.49-3.16,3.16-3.16h31.93c1.86,0,3.16,1.49,3.16,3.16v80.75c0,8.55,4.83,13.55,13,13.55s13-5.02,13-13.36v-80.95c0-1.67,1.49-3.16,3.16-3.16h31.93-.01Z"/>
    <path class="st1" d="M1011.84,307.31c.92,1.67-.18,2.98-2.04,2.98h-38.8c-1.67,0-3.53-1.49-4.27-2.98l-15.22-31.01-15.22,31.01c-.74,1.49-2.59,2.98-4.27,2.98h-38.8c-1.86,0-2.98-1.3-2.04-2.98l33.23-61.08-33.23-61.08c-.92-1.67.18-2.98,2.04-2.98h38.62c1.67,0,3.53,1.49,4.27,2.98l15.4,32.86,15.4-32.86c.74-1.49,2.59-2.98,4.27-2.98h38.62c1.86,0,2.98,1.3,2.04,2.98l-33.23,61.08,33.23,61.08Z"/>
    <path class="st1" d="M1130.84,276.87c1.49,0,2.79,1.12,2.79,2.41v28.4c0,1.3-1.3,2.59-2.79,2.59h-86.32c-1.3,0-2.59-1.49-2.98-2.78v-122.72c0-1.67.92-2.59,2.59-2.59h84.46c1.67,0,2.98,1.3,2.98,2.59v28.03c0,1.67-1.3,2.78-2.98,2.78h-48.45v14.67h42.19c1.67,0,2.59,1.3,2.41,2.41l-5.43,25.99c-.18,1.12-1.49,2.41-3.16,2.41h-36.01v15.77h50.68v.03Z"/>
  </g>
  <path class="st0" d="M329.09,150.24c-13.42.52-27.88.3-38.23,9.22-6.87,5.91-12.69,13.17-18.36,20.2-4.63,5.74-9.21,15.58-13.67,21.51v-109.74c0-9.37-7.59-16.96-16.96-16.96s-16.96,7.59-16.96,16.96v150.34c0,8.04,5.6,14.76,13.11,16.5,5.2,2.56,11.86,1.95,15.67-4.35,2.11-2.06,3.68-4.66,4.5-7.58,9.33-15.28,20.52-34.61,30.43-47.04,5.49-6.89,8.58-12.66,14.94-18.76.4-.39,1.15-.69,1.95-1.44.13-.05,2.06-.64,2.37-.79.39-.19,4.17-1.35,4.6-1.41,7.77-1.05,10.12.61,16.61.36,6.75-.26,18.35-.36,18.35-14.5s-11.57-12.76-18.35-12.5v-.02ZM309.06,180.52c.07-.04.13-.07.19-.1-.06.03-.12.06-.19.1Z"/>
</svg>
